<?xml version="1.0" standalone="no"?>
<!DOCTYPE svg PUBLIC "-//W3C//DTD SVG 20010904//EN"
 "http://www.w3.org/TR/2001/REC-SVG-20010904/DTD/svg10.dtd">
<svg version="1.0" xmlns="http://www.w3.org/2000/svg"
 width="512.000000pt" height="512.000000pt" viewBox="0 0 512.000000 512.000000"
 preserveAspectRatio="xMidYMid meet">
<metadata>
Created by potrace 1.14, written by Peter Selinger 2001-2017
</metadata>
<g transform="translate(0.000000,512.000000) scale(0.100000,-0.100000)"
fill="#000000" stroke="none">
<path d="M2495 4744 c-27 -25 -79 -71 -114 -102 -35 -32 -69 -61 -75 -67 -6
-5 -51 -46 -101 -90 -49 -44 -95 -84 -101 -90 -19 -18 -138 -123 -163 -144
-12 -11 -57 -51 -99 -88 -41 -37 -83 -75 -92 -83 -79 -70 -173 -153 -215 -190
-64 -58 -60 -55 -140 -125 -38 -33 -73 -64 -79 -70 -6 -5 -49 -44 -96 -85 -47
-41 -102 -91 -124 -110 -21 -19 -44 -39 -50 -45 -6 -5 -49 -44 -96 -85 -47
-41 -101 -89 -120 -107 -19 -17 -46 -41 -60 -53 -14 -12 -54 -47 -89 -78 -35
-31 -72 -64 -81 -72 -9 -8 -50 -44 -90 -80 -40 -36 -81 -72 -90 -80 -55 -48
-170 -151 -209 -187 l-46 -42 358 -1 357 0 0 -948 0 -948 1678 0 1677 1 3 948
2 947 360 0 360 0 -128 112 c-187 166 -193 171 -221 197 -14 13 -55 49 -90 80
-36 31 -76 67 -90 80 -28 25 -131 117 -170 150 -12 11 -57 51 -98 88 -42 37
-92 82 -111 98 -20 17 -46 39 -58 50 -12 11 -39 36 -60 55 -22 19 -75 67 -119
105 -43 39 -86 77 -95 85 -9 8 -49 44 -90 80 -40 36 -94 83 -119 106 -25 22
-73 65 -106 95 -34 30 -94 83 -135 119 -40 36 -84 74 -96 85 -12 11 -50 45
-85 75 -35 30 -76 66 -90 80 -26 24 -129 115 -170 151 -42 36 -165 146 -208
186 -25 23 -53 42 -61 42 -8 1 -37 -20 -65 -45z m486 -1839 l296 0 -17 -35
c-23 -50 -126 -255 -360 -715 -111 -220 -261 -514 -331 -654 l-129 -254 0 474
0 474 -295 0 c-183 0 -295 3 -295 9 0 10 46 102 365 731 100 198 245 483 321
634 l139 274 5 -469 5 -469 296 0z"/>
</g>
</svg>
