<svg width="171" height="81" viewBox="0 0 171 81" fill="none" xmlns="http://www.w3.org/2000/svg">
<path d="M42 5L5 37.2941H16.1V66H67.9V37.2941H79L42 5ZM40.15 58.8235V44.4706H30.9L43.85 19.3529V33.7059H53.1L40.15 58.8235Z" fill="#F4BF37"/>
<path d="M67.16 37.08H85.96V40.8H71.04V49.6H84.36V53.32H71.04V62.28H86.52V66H67.16V37.08ZM135.08 63.84C134.6 64.16 133.946 64.52 133.12 64.92C132.293 65.32 131.32 65.6533 130.2 65.92C129.106 66.1867 127.906 66.32 126.6 66.32C124.36 66.2933 122.333 65.8933 120.52 65.12C118.733 64.3467 117.213 63.2933 115.96 61.96C114.706 60.6267 113.733 59.0933 113.04 57.36C112.373 55.6 112.04 53.7333 112.04 51.76C112.04 49.6 112.386 47.6133 113.08 45.8C113.8 43.96 114.8 42.3733 116.08 41.04C117.36 39.68 118.866 38.6267 120.6 37.88C122.36 37.1333 124.28 36.76 126.36 36.76C128.093 36.76 129.666 37 131.08 37.48C132.493 37.9333 133.706 38.48 134.72 39.12L133.16 42.72C132.36 42.1867 131.386 41.68 130.24 41.2C129.12 40.72 127.866 40.48 126.48 40.48C125.066 40.48 123.733 40.76 122.48 41.32C121.226 41.88 120.12 42.6667 119.16 43.68C118.2 44.6933 117.44 45.88 116.88 47.24C116.346 48.5733 116.08 50.0133 116.08 51.56C116.08 53.1333 116.32 54.6 116.8 55.96C117.306 57.2933 118.013 58.4533 118.92 59.44C119.853 60.4267 120.973 61.2 122.28 61.76C123.586 62.32 125.053 62.6 126.68 62.6C128.146 62.6 129.453 62.3733 130.6 61.92C131.746 61.4667 132.693 60.96 133.44 60.4L135.08 63.84ZM139.253 57.56C139.253 55.9067 139.64 54.4133 140.413 53.08C141.213 51.7467 142.306 50.6933 143.693 49.92C145.08 49.1467 146.653 48.76 148.413 48.76C150.226 48.76 151.813 49.1467 153.173 49.92C154.533 50.6933 155.586 51.7467 156.333 53.08C157.08 54.4133 157.453 55.9067 157.453 57.56C157.453 59.2133 157.08 60.72 156.333 62.08C155.586 63.4133 154.52 64.4667 153.133 65.24C151.773 66.0133 150.186 66.4 148.373 66.4C146.613 66.4 145.04 66.04 143.653 65.32C142.293 64.5733 141.213 63.5467 140.413 62.24C139.64 60.9067 139.253 59.3467 139.253 57.56ZM142.973 57.6C142.973 58.6667 143.213 59.64 143.693 60.52C144.173 61.3733 144.813 62.0533 145.613 62.56C146.44 63.0667 147.346 63.32 148.333 63.32C149.373 63.32 150.293 63.0667 151.093 62.56C151.92 62.0533 152.56 61.3733 153.013 60.52C153.466 59.64 153.693 58.6667 153.693 57.6C153.693 56.5333 153.466 55.5733 153.013 54.72C152.56 53.84 151.92 53.1467 151.093 52.64C150.293 52.1067 149.373 51.84 148.333 51.84C147.32 51.84 146.4 52.1067 145.573 52.64C144.773 53.1733 144.133 53.88 143.653 54.76C143.2 55.6133 142.973 56.56 142.973 57.6Z" fill="black"/>
<path d="M93.1338 55.92H105.334V59.2H93.1338V55.92ZM160.61 63.88C160.61 63.2933 160.823 62.8 161.25 62.4C161.703 61.9733 162.197 61.76 162.73 61.76C163.21 61.76 163.663 61.9733 164.09 62.4C164.543 62.8 164.77 63.2933 164.77 63.88C164.77 64.52 164.543 65.04 164.09 65.44C163.663 65.8133 163.21 66 162.73 66C162.197 66 161.703 65.8133 161.25 65.44C160.823 65.04 160.61 64.52 160.61 63.88Z" fill="#F4BF37"/>
</svg>
