<svg width="161" height="71" viewBox="0 0 161 71" fill="none" xmlns="http://www.w3.org/2000/svg">
<path d="M37 0L0 32.2941H11.1V61H62.9V32.2941H74L37 0ZM35.15 53.8235V39.4706H25.9L38.85 14.3529V28.7059H48.1L35.15 53.8235Z" fill="#F4BF37"/>
<path d="M62.16 32.08H80.96V35.8H66.04V44.6H79.36V48.32H66.04V57.28H81.52V61H62.16V32.08ZM130.08 58.84C129.6 59.16 128.946 59.52 128.12 59.92C127.293 60.32 126.32 60.6533 125.2 60.92C124.106 61.1867 122.906 61.32 121.6 61.32C119.36 61.2933 117.333 60.8933 115.52 60.12C113.733 59.3467 112.213 58.2933 110.96 56.96C109.706 55.6267 108.733 54.0933 108.04 52.36C107.373 50.6 107.04 48.7333 107.04 46.76C107.04 44.6 107.386 42.6133 108.08 40.8C108.8 38.96 109.8 37.3733 111.08 36.04C112.36 34.68 113.866 33.6267 115.6 32.88C117.36 32.1333 119.28 31.76 121.36 31.76C123.093 31.76 124.666 32 126.08 32.48C127.493 32.9333 128.706 33.48 129.72 34.12L128.16 37.72C127.36 37.1867 126.386 36.68 125.24 36.2C124.12 35.72 122.866 35.48 121.48 35.48C120.066 35.48 118.733 35.76 117.48 36.32C116.226 36.88 115.12 37.6667 114.16 38.68C113.2 39.6933 112.44 40.88 111.88 42.24C111.346 43.5733 111.08 45.0133 111.08 46.56C111.08 48.1333 111.32 49.6 111.8 50.96C112.306 52.2933 113.013 53.4533 113.92 54.44C114.853 55.4267 115.973 56.2 117.28 56.76C118.586 57.32 120.053 57.6 121.68 57.6C123.146 57.6 124.453 57.3733 125.6 56.92C126.746 56.4667 127.693 55.96 128.44 55.4L130.08 58.84ZM134.253 52.56C134.253 50.9067 134.64 49.4133 135.413 48.08C136.213 46.7467 137.306 45.6933 138.693 44.92C140.08 44.1467 141.653 43.76 143.413 43.76C145.226 43.76 146.813 44.1467 148.173 44.92C149.533 45.6933 150.586 46.7467 151.333 48.08C152.08 49.4133 152.453 50.9067 152.453 52.56C152.453 54.2133 152.08 55.72 151.333 57.08C150.586 58.4133 149.52 59.4667 148.133 60.24C146.773 61.0133 145.186 61.4 143.373 61.4C141.613 61.4 140.04 61.04 138.653 60.32C137.293 59.5733 136.213 58.5467 135.413 57.24C134.64 55.9067 134.253 54.3467 134.253 52.56ZM137.973 52.6C137.973 53.6667 138.213 54.64 138.693 55.52C139.173 56.3733 139.813 57.0533 140.613 57.56C141.44 58.0667 142.346 58.32 143.333 58.32C144.373 58.32 145.293 58.0667 146.093 57.56C146.92 57.0533 147.56 56.3733 148.013 55.52C148.466 54.64 148.693 53.6667 148.693 52.6C148.693 51.5333 148.466 50.5733 148.013 49.72C147.56 48.84 146.92 48.1467 146.093 47.64C145.293 47.1067 144.373 46.84 143.333 46.84C142.32 46.84 141.4 47.1067 140.573 47.64C139.773 48.1733 139.133 48.88 138.653 49.76C138.2 50.6133 137.973 51.56 137.973 52.6Z" fill="black"/>
<path d="M88.1338 50.92H100.334V54.2H88.1338V50.92ZM155.61 58.88C155.61 58.2933 155.823 57.8 156.25 57.4C156.703 56.9733 157.197 56.76 157.73 56.76C158.21 56.76 158.663 56.9733 159.09 57.4C159.543 57.8 159.77 58.2933 159.77 58.88C159.77 59.52 159.543 60.04 159.09 60.44C158.663 60.8133 158.21 61 157.73 61C157.197 61 156.703 60.8133 156.25 60.44C155.823 60.04 155.61 59.52 155.61 58.88Z" fill="#F4BF37"/>
</svg>
