<svg width="35" height="35" viewBox="0 0 35 35" fill="none" xmlns="http://www.w3.org/2000/svg">
<path d="M15.75 28H19.25V24.5H15.75V28ZM17.5 0C15.2019 0 12.9262 0.452651 10.803 1.33211C8.67984 2.21157 6.75066 3.50061 5.12563 5.12563C1.84374 8.40752 0 12.8587 0 17.5C0 22.1413 1.84374 26.5925 5.12563 29.8744C6.75066 31.4994 8.67984 32.7884 10.803 33.6679C12.9262 34.5473 15.2019 35 17.5 35C22.1413 35 26.5925 33.1563 29.8744 29.8744C33.1563 26.5925 35 22.1413 35 17.5C35 15.2019 34.5473 12.9262 33.6679 10.803C32.7884 8.67984 31.4994 6.75066 29.8744 5.12563C28.2493 3.50061 26.3202 2.21157 24.197 1.33211C22.0738 0.452651 19.7981 0 17.5 0ZM17.5 31.5C9.7825 31.5 3.5 25.2175 3.5 17.5C3.5 9.7825 9.7825 3.5 17.5 3.5C25.2175 3.5 31.5 9.7825 31.5 17.5C31.5 25.2175 25.2175 31.5 17.5 31.5ZM17.5 7C15.6435 7 13.863 7.7375 12.5503 9.05025C11.2375 10.363 10.5 12.1435 10.5 14H14C14 13.0717 14.3687 12.1815 15.0251 11.5251C15.6815 10.8687 16.5717 10.5 17.5 10.5C18.4283 10.5 19.3185 10.8687 19.9749 11.5251C20.6313 12.1815 21 13.0717 21 14C21 17.5 15.75 17.0625 15.75 22.75H19.25C19.25 18.8125 24.5 18.375 24.5 14C24.5 12.1435 23.7625 10.363 22.4497 9.05025C21.137 7.7375 19.3565 7 17.5 7Z" fill="#F4BF37"/>
</svg>
